<svg width="53" height="53" viewBox="0 0 53 53" fill="none" xmlns="http://www.w3.org/2000/svg">
<path d="M51.0837 25.4348C51.0837 38.4225 40.0758 48.953 26.5003 48.953C24.9041 48.955 23.3125 48.8075 21.7445 48.513C20.6159 48.301 20.0516 48.1951 19.6576 48.2552C19.2637 48.3154 18.7054 48.6123 17.5888 49.2061C14.4302 50.8858 10.7472 51.479 7.20514 50.8202C8.55139 49.1643 9.47082 47.1775 9.87653 45.0475C10.1224 43.7448 9.51324 42.4791 8.60093 41.5526C4.45727 37.345 1.91699 31.675 1.91699 25.4348C1.91699 12.4471 12.9249 1.91663 26.5003 1.91663C40.0758 1.91663 51.0837 12.4471 51.0837 25.4348Z" stroke="white" stroke-width="3" stroke-linejoin="round"/>
<path d="M26.4893 26.5H26.5114M36.3116 26.5H36.3337M16.667 26.5H16.689" stroke="white" stroke-width="2" stroke-linecap="round" stroke-linejoin="round"/>
</svg>
