<svg width="1055" height="54" viewBox="0 0 1055 54" fill="none" xmlns="http://www.w3.org/2000/svg">
<path d="M5.83301 11.5767C5.83301 17.2371 10.7849 21.9181 12.9767 23.7127C13.2904 23.9696 13.4491 24.0996 13.6832 24.1654C13.8654 24.2167 14.1336 24.2167 14.3158 24.1654C14.5503 24.0994 14.7079 23.9707 15.0228 23.7129C17.2146 21.9183 22.1662 17.2376 22.1662 11.5772C22.1662 9.43505 21.3059 7.38039 19.7743 5.86568C18.2428 4.35096 16.1657 3.5 13.9998 3.5C11.8338 3.5 9.75652 4.35109 8.22497 5.8658C6.69342 7.38052 5.83301 9.43453 5.83301 11.5767Z" stroke="url(#paint0_linear_76_1520)" stroke-width="2" stroke-linecap="round" stroke-linejoin="round"/>
<path d="M11.6663 10.5C11.6663 11.7887 12.711 12.8333 13.9997 12.8333C15.2883 12.8333 16.333 11.7887 16.333 10.5C16.333 9.21134 15.2883 8.16667 13.9997 8.16667C12.711 8.16667 11.6663 9.21134 11.6663 10.5Z" stroke="url(#paint1_linear_76_1520)" stroke-width="2" stroke-linecap="round" stroke-linejoin="round"/>
<path d="M42.918 18.686C44.442 17.462 45.636 16.46 46.5 15.68C47.364 14.888 48.09 14.066 48.678 13.214C49.278 12.35 49.578 11.504 49.578 10.676C49.578 9.896 49.386 9.284 49.002 8.84C48.63 8.384 48.024 8.156 47.184 8.156C46.368 8.156 45.732 8.414 45.276 8.93C44.832 9.434 44.592 10.112 44.556 10.964H42.972C43.02 9.62 43.428 8.582 44.196 7.85C44.964 7.118 45.954 6.752 47.166 6.752C48.402 6.752 49.38 7.094 50.1 7.778C50.832 8.462 51.198 9.404 51.198 10.604C51.198 11.6 50.898 12.572 50.298 13.52C49.71 14.456 49.038 15.284 48.282 16.004C47.526 16.712 46.56 17.54 45.384 18.488H51.576V19.856H42.918V18.686ZM53.4335 17.102V15.86L59.7515 7.112H61.7135V15.68H63.5135V17.102H61.7135V20H60.0935V17.102H53.4335ZM60.1655 8.822L55.3235 15.68H60.1655V8.822ZM73.8078 8.408H67.4898V12.512C67.7658 12.128 68.1738 11.816 68.7138 11.576C69.2538 11.324 69.8358 11.198 70.4598 11.198C71.4558 11.198 72.2658 11.408 72.8898 11.828C73.5138 12.236 73.9578 12.77 74.2218 13.43C74.4978 14.078 74.6358 14.768 74.6358 15.5C74.6358 16.364 74.4738 17.138 74.1498 17.822C73.8258 18.506 73.3278 19.046 72.6558 19.442C71.9958 19.838 71.1738 20.036 70.1898 20.036C68.9298 20.036 67.9098 19.712 67.1298 19.064C66.3498 18.416 65.8758 17.552 65.7078 16.472H67.3098C67.4658 17.156 67.7958 17.69 68.2998 18.074C68.8038 18.458 69.4398 18.65 70.2078 18.65C71.1558 18.65 71.8698 18.368 72.3498 17.804C72.8298 17.228 73.0698 16.472 73.0698 15.536C73.0698 14.6 72.8298 13.88 72.3498 13.376C71.8698 12.86 71.1618 12.602 70.2258 12.602C69.5898 12.602 69.0318 12.758 68.5518 13.07C68.0838 13.37 67.7418 13.784 67.5258 14.312H65.9778V6.968H73.8078V8.408ZM81.9894 13.718C81.9894 12.494 82.2654 11.396 82.8174 10.424C83.3694 9.44 84.1194 8.672 85.0674 8.12C86.0274 7.568 87.0894 7.292 88.2534 7.292C89.6214 7.292 90.8154 7.622 91.8354 8.282C92.8554 8.942 93.5994 9.878 94.0674 11.09H92.1054C91.7574 10.334 91.2534 9.752 90.5934 9.344C89.9454 8.936 89.1654 8.732 88.2534 8.732C87.3774 8.732 86.5914 8.936 85.8954 9.344C85.1994 9.752 84.6534 10.334 84.2574 11.09C83.8614 11.834 83.6634 12.71 83.6634 13.718C83.6634 14.714 83.8614 15.59 84.2574 16.346C84.6534 17.09 85.1994 17.666 85.8954 18.074C86.5914 18.482 87.3774 18.686 88.2534 18.686C89.1654 18.686 89.9454 18.488 90.5934 18.092C91.2534 17.684 91.7574 17.102 92.1054 16.346H94.0674C93.5994 17.546 92.8554 18.476 91.8354 19.136C90.8154 19.784 89.6214 20.108 88.2534 20.108C87.0894 20.108 86.0274 19.838 85.0674 19.298C84.1194 18.746 83.3694 17.984 82.8174 17.012C82.2654 16.04 81.9894 14.942 81.9894 13.718ZM101.168 20.162C100.244 20.162 99.4037 19.952 98.6477 19.532C97.9037 19.112 97.3157 18.518 96.8837 17.75C96.4637 16.97 96.2537 16.07 96.2537 15.05C96.2537 14.042 96.4697 13.154 96.9017 12.386C97.3457 11.606 97.9457 11.012 98.7017 10.604C99.4577 10.184 100.304 9.974 101.24 9.974C102.176 9.974 103.022 10.184 103.778 10.604C104.534 11.012 105.128 11.6 105.56 12.368C106.004 13.136 106.226 14.03 106.226 15.05C106.226 16.07 105.998 16.97 105.542 17.75C105.098 18.518 104.492 19.112 103.724 19.532C102.956 19.952 102.104 20.162 101.168 20.162ZM101.168 18.722C101.756 18.722 102.308 18.584 102.824 18.308C103.34 18.032 103.754 17.618 104.066 17.066C104.39 16.514 104.552 15.842 104.552 15.05C104.552 14.258 104.396 13.586 104.084 13.034C103.772 12.482 103.364 12.074 102.86 11.81C102.356 11.534 101.81 11.396 101.222 11.396C100.622 11.396 100.07 11.534 99.5657 11.81C99.0737 12.074 98.6777 12.482 98.3777 13.034C98.0777 13.586 97.9277 14.258 97.9277 15.05C97.9277 15.854 98.0717 16.532 98.3597 17.084C98.6597 17.636 99.0557 18.05 99.5477 18.326C100.04 18.59 100.58 18.722 101.168 18.722ZM110.377 6.68V20H108.739V6.68H110.377ZM112.917 15.032C112.917 14.024 113.121 13.142 113.529 12.386C113.937 11.618 114.495 11.024 115.203 10.604C115.923 10.184 116.727 9.974 117.615 9.974C118.383 9.974 119.097 10.154 119.757 10.514C120.417 10.862 120.921 11.324 121.269 11.9V6.68H122.925V20H121.269V18.146C120.945 18.734 120.465 19.22 119.829 19.604C119.193 19.976 118.449 20.162 117.597 20.162C116.721 20.162 115.923 19.946 115.203 19.514C114.495 19.082 113.937 18.476 113.529 17.696C113.121 16.916 112.917 16.028 112.917 15.032ZM121.269 15.05C121.269 14.306 121.119 13.658 120.819 13.106C120.519 12.554 120.111 12.134 119.595 11.846C119.091 11.546 118.533 11.396 117.921 11.396C117.309 11.396 116.751 11.54 116.247 11.828C115.743 12.116 115.341 12.536 115.041 13.088C114.741 13.64 114.591 14.288 114.591 15.032C114.591 15.788 114.741 16.448 115.041 17.012C115.341 17.564 115.743 17.99 116.247 18.29C116.751 18.578 117.309 18.722 117.921 18.722C118.533 18.722 119.091 18.578 119.595 18.29C120.111 17.99 120.519 17.564 120.819 17.012C121.119 16.448 121.269 15.794 121.269 15.05ZM135.19 20.126C134.362 20.126 133.618 19.982 132.958 19.694C132.31 19.394 131.8 18.986 131.428 18.47C131.056 17.942 130.864 17.336 130.852 16.652H132.598C132.658 17.24 132.898 17.738 133.318 18.146C133.75 18.542 134.374 18.74 135.19 18.74C135.97 18.74 136.582 18.548 137.026 18.164C137.482 17.768 137.71 17.264 137.71 16.652C137.71 16.172 137.578 15.782 137.314 15.482C137.05 15.182 136.72 14.954 136.324 14.798C135.928 14.642 135.394 14.474 134.722 14.294C133.894 14.078 133.228 13.862 132.724 13.646C132.232 13.43 131.806 13.094 131.446 12.638C131.098 12.17 130.924 11.546 130.924 10.766C130.924 10.082 131.098 9.476 131.446 8.948C131.794 8.42 132.28 8.012 132.904 7.724C133.54 7.436 134.266 7.292 135.082 7.292C136.258 7.292 137.218 7.586 137.962 8.174C138.718 8.762 139.144 9.542 139.24 10.514H137.44C137.38 10.034 137.128 9.614 136.684 9.254C136.24 8.882 135.652 8.696 134.92 8.696C134.236 8.696 133.678 8.876 133.246 9.236C132.814 9.584 132.598 10.076 132.598 10.712C132.598 11.168 132.724 11.54 132.976 11.828C133.24 12.116 133.558 12.338 133.93 12.494C134.314 12.638 134.848 12.806 135.532 12.998C136.36 13.226 137.026 13.454 137.53 13.682C138.034 13.898 138.466 14.24 138.826 14.708C139.186 15.164 139.366 15.788 139.366 16.58C139.366 17.192 139.204 17.768 138.88 18.308C138.556 18.848 138.076 19.286 137.44 19.622C136.804 19.958 136.054 20.126 135.19 20.126ZM144.134 11.486V17.3C144.134 17.78 144.236 18.122 144.44 18.326C144.644 18.518 144.998 18.614 145.502 18.614H146.708V20H145.232C144.32 20 143.636 19.79 143.18 19.37C142.724 18.95 142.496 18.26 142.496 17.3V11.486H141.218V10.136H142.496V7.652H144.134V10.136H146.708V11.486H144.134ZM153.355 20.162C152.431 20.162 151.591 19.952 150.835 19.532C150.091 19.112 149.503 18.518 149.071 17.75C148.651 16.97 148.441 16.07 148.441 15.05C148.441 14.042 148.657 13.154 149.089 12.386C149.533 11.606 150.133 11.012 150.889 10.604C151.645 10.184 152.491 9.974 153.427 9.974C154.363 9.974 155.209 10.184 155.965 10.604C156.721 11.012 157.315 11.6 157.747 12.368C158.191 13.136 158.413 14.03 158.413 15.05C158.413 16.07 158.185 16.97 157.729 17.75C157.285 18.518 156.679 19.112 155.911 19.532C155.143 19.952 154.291 20.162 153.355 20.162ZM153.355 18.722C153.943 18.722 154.495 18.584 155.011 18.308C155.527 18.032 155.941 17.618 156.253 17.066C156.577 16.514 156.739 15.842 156.739 15.05C156.739 14.258 156.583 13.586 156.271 13.034C155.959 12.482 155.551 12.074 155.047 11.81C154.543 11.534 153.997 11.396 153.409 11.396C152.809 11.396 152.257 11.534 151.753 11.81C151.261 12.074 150.865 12.482 150.565 13.034C150.265 13.586 150.115 14.258 150.115 15.05C150.115 15.854 150.259 16.532 150.547 17.084C150.847 17.636 151.243 18.05 151.735 18.326C152.227 18.59 152.767 18.722 153.355 18.722ZM162.565 11.738C162.853 11.174 163.261 10.736 163.789 10.424C164.329 10.112 164.983 9.956 165.751 9.956V11.648H165.319C163.483 11.648 162.565 12.644 162.565 14.636V20H160.927V10.136H162.565V11.738ZM167.39 15.032C167.39 14.024 167.594 13.142 168.002 12.386C168.41 11.618 168.968 11.024 169.676 10.604C170.396 10.184 171.194 9.974 172.07 9.974C172.934 9.974 173.684 10.16 174.32 10.532C174.956 10.904 175.43 11.372 175.742 11.936V10.136H177.398V20H175.742V18.164C175.418 18.74 174.932 19.22 174.284 19.604C173.648 19.976 172.904 20.162 172.052 20.162C171.176 20.162 170.384 19.946 169.676 19.514C168.968 19.082 168.41 18.476 168.002 17.696C167.594 16.916 167.39 16.028 167.39 15.032ZM175.742 15.05C175.742 14.306 175.592 13.658 175.292 13.106C174.992 12.554 174.584 12.134 174.068 11.846C173.564 11.546 173.006 11.396 172.394 11.396C171.782 11.396 171.224 11.54 170.72 11.828C170.216 12.116 169.814 12.536 169.514 13.088C169.214 13.64 169.064 14.288 169.064 15.032C169.064 15.788 169.214 16.448 169.514 17.012C169.814 17.564 170.216 17.99 170.72 18.29C171.224 18.578 171.782 18.722 172.394 18.722C173.006 18.722 173.564 18.578 174.068 18.29C174.584 17.99 174.992 17.564 175.292 17.012C175.592 16.448 175.742 15.794 175.742 15.05ZM184.594 9.974C185.446 9.974 186.19 10.16 186.826 10.532C187.474 10.904 187.954 11.372 188.266 11.936V10.136H189.922V20.216C189.922 21.116 189.73 21.914 189.346 22.61C188.962 23.318 188.41 23.87 187.69 24.266C186.982 24.662 186.154 24.86 185.206 24.86C183.91 24.86 182.83 24.554 181.966 23.942C181.102 23.33 180.592 22.496 180.436 21.44H182.056C182.236 22.04 182.608 22.52 183.172 22.88C183.736 23.252 184.414 23.438 185.206 23.438C186.106 23.438 186.838 23.156 187.402 22.592C187.978 22.028 188.266 21.236 188.266 20.216V18.146C187.942 18.722 187.462 19.202 186.826 19.586C186.19 19.97 185.446 20.162 184.594 20.162C183.718 20.162 182.92 19.946 182.2 19.514C181.492 19.082 180.934 18.476 180.526 17.696C180.118 16.916 179.914 16.028 179.914 15.032C179.914 14.024 180.118 13.142 180.526 12.386C180.934 11.618 181.492 11.024 182.2 10.604C182.92 10.184 183.718 9.974 184.594 9.974ZM188.266 15.05C188.266 14.306 188.116 13.658 187.816 13.106C187.516 12.554 187.108 12.134 186.592 11.846C186.088 11.546 185.53 11.396 184.918 11.396C184.306 11.396 183.748 11.54 183.244 11.828C182.74 12.116 182.338 12.536 182.038 13.088C181.738 13.64 181.588 14.288 181.588 15.032C181.588 15.788 181.738 16.448 182.038 17.012C182.338 17.564 182.74 17.99 183.244 18.29C183.748 18.578 184.306 18.722 184.918 18.722C185.53 18.722 186.088 18.578 186.592 18.29C187.108 17.99 187.516 17.564 187.816 17.012C188.116 16.448 188.266 15.794 188.266 15.05ZM202.05 14.69C202.05 15.002 202.032 15.332 201.996 15.68H194.112C194.172 16.652 194.502 17.414 195.102 17.966C195.714 18.506 196.452 18.776 197.316 18.776C198.024 18.776 198.612 18.614 199.08 18.29C199.56 17.954 199.896 17.51 200.088 16.958H201.852C201.588 17.906 201.06 18.68 200.268 19.28C199.476 19.868 198.492 20.162 197.316 20.162C196.38 20.162 195.54 19.952 194.796 19.532C194.064 19.112 193.488 18.518 193.068 17.75C192.648 16.97 192.438 16.07 192.438 15.05C192.438 14.03 192.642 13.136 193.05 12.368C193.458 11.6 194.028 11.012 194.76 10.604C195.504 10.184 196.356 9.974 197.316 9.974C198.252 9.974 199.08 10.178 199.8 10.586C200.52 10.994 201.072 11.558 201.456 12.278C201.852 12.986 202.05 13.79 202.05 14.69ZM200.358 14.348C200.358 13.724 200.22 13.19 199.944 12.746C199.668 12.29 199.29 11.948 198.81 11.72C198.342 11.48 197.82 11.36 197.244 11.36C196.416 11.36 195.708 11.624 195.12 12.152C194.544 12.68 194.214 13.412 194.13 14.348H200.358ZM216.337 20L213.349 14.87H211.369V20H209.731V7.454H213.781C214.729 7.454 215.527 7.616 216.175 7.94C216.835 8.264 217.327 8.702 217.651 9.254C217.975 9.806 218.137 10.436 218.137 11.144C218.137 12.008 217.885 12.77 217.381 13.43C216.889 14.09 216.145 14.528 215.149 14.744L218.299 20H216.337ZM211.369 13.556H213.781C214.669 13.556 215.335 13.34 215.779 12.908C216.223 12.464 216.445 11.876 216.445 11.144C216.445 10.4 216.223 9.824 215.779 9.416C215.347 9.008 214.681 8.804 213.781 8.804H211.369V13.556ZM220.43 15.032C220.43 14.024 220.634 13.142 221.042 12.386C221.45 11.618 222.008 11.024 222.716 10.604C223.436 10.184 224.24 9.974 225.128 9.974C225.896 9.974 226.61 10.154 227.27 10.514C227.93 10.862 228.434 11.324 228.782 11.9V6.68H230.438V20H228.782V18.146C228.458 18.734 227.978 19.22 227.342 19.604C226.706 19.976 225.962 20.162 225.11 20.162C224.234 20.162 223.436 19.946 222.716 19.514C222.008 19.082 221.45 18.476 221.042 17.696C220.634 16.916 220.43 16.028 220.43 15.032ZM228.782 15.05C228.782 14.306 228.632 13.658 228.332 13.106C228.032 12.554 227.624 12.134 227.108 11.846C226.604 11.546 226.046 11.396 225.434 11.396C224.822 11.396 224.264 11.54 223.76 11.828C223.256 12.116 222.854 12.536 222.554 13.088C222.254 13.64 222.104 14.288 222.104 15.032C222.104 15.788 222.254 16.448 222.554 17.012C222.854 17.564 223.256 17.99 223.76 18.29C224.264 18.578 224.822 18.722 225.434 18.722C226.046 18.722 226.604 18.578 227.108 18.29C227.624 17.99 228.032 17.564 228.332 17.012C228.632 16.448 228.782 15.794 228.782 15.05ZM235.258 17.732L233.242 22.574H232.144L233.458 17.732H235.258ZM242.041 13.718C242.041 12.494 242.317 11.396 242.869 10.424C243.421 9.44 244.171 8.672 245.119 8.12C246.079 7.568 247.141 7.292 248.305 7.292C249.673 7.292 250.867 7.622 251.887 8.282C252.907 8.942 253.651 9.878 254.119 11.09H252.157C251.809 10.334 251.305 9.752 250.645 9.344C249.997 8.936 249.217 8.732 248.305 8.732C247.429 8.732 246.643 8.936 245.947 9.344C245.251 9.752 244.705 10.334 244.309 11.09C243.913 11.834 243.715 12.71 243.715 13.718C243.715 14.714 243.913 15.59 244.309 16.346C244.705 17.09 245.251 17.666 245.947 18.074C246.643 18.482 247.429 18.686 248.305 18.686C249.217 18.686 249.997 18.488 250.645 18.092C251.305 17.684 251.809 17.102 252.157 16.346H254.119C253.651 17.546 252.907 18.476 251.887 19.136C250.867 19.784 249.673 20.108 248.305 20.108C247.141 20.108 246.079 19.838 245.119 19.298C244.171 18.746 243.421 17.984 242.869 17.012C242.317 16.04 242.041 14.942 242.041 13.718ZM258.555 11.738C258.843 11.174 259.251 10.736 259.779 10.424C260.319 10.112 260.973 9.956 261.741 9.956V11.648H261.309C259.473 11.648 258.555 12.644 258.555 14.636V20H256.917V10.136H258.555V11.738ZM263.38 15.032C263.38 14.024 263.584 13.142 263.992 12.386C264.4 11.618 264.958 11.024 265.666 10.604C266.386 10.184 267.184 9.974 268.06 9.974C268.924 9.974 269.674 10.16 270.31 10.532C270.946 10.904 271.42 11.372 271.732 11.936V10.136H273.388V20H271.732V18.164C271.408 18.74 270.922 19.22 270.274 19.604C269.638 19.976 268.894 20.162 268.042 20.162C267.166 20.162 266.374 19.946 265.666 19.514C264.958 19.082 264.4 18.476 263.992 17.696C263.584 16.916 263.38 16.028 263.38 15.032ZM271.732 15.05C271.732 14.306 271.582 13.658 271.282 13.106C270.982 12.554 270.574 12.134 270.058 11.846C269.554 11.546 268.996 11.396 268.384 11.396C267.772 11.396 267.214 11.54 266.71 11.828C266.206 12.116 265.804 12.536 265.504 13.088C265.204 13.64 265.054 14.288 265.054 15.032C265.054 15.788 265.204 16.448 265.504 17.012C265.804 17.564 266.206 17.99 266.71 18.29C267.214 18.578 267.772 18.722 268.384 18.722C268.996 18.722 269.554 18.578 270.058 18.29C270.574 17.99 270.982 17.564 271.282 17.012C271.582 16.448 271.732 15.794 271.732 15.05ZM277.362 8.534C277.05 8.534 276.786 8.426 276.57 8.21C276.354 7.994 276.246 7.73 276.246 7.418C276.246 7.106 276.354 6.842 276.57 6.626C276.786 6.41 277.05 6.302 277.362 6.302C277.662 6.302 277.914 6.41 278.118 6.626C278.334 6.842 278.442 7.106 278.442 7.418C278.442 7.73 278.334 7.994 278.118 8.21C277.914 8.426 277.662 8.534 277.362 8.534ZM278.154 10.136V20H276.516V10.136H278.154ZM285.374 9.974C286.226 9.974 286.97 10.16 287.606 10.532C288.254 10.904 288.734 11.372 289.046 11.936V10.136H290.702V20.216C290.702 21.116 290.51 21.914 290.126 22.61C289.742 23.318 289.19 23.87 288.47 24.266C287.762 24.662 286.934 24.86 285.986 24.86C284.69 24.86 283.61 24.554 282.746 23.942C281.882 23.33 281.372 22.496 281.216 21.44H282.836C283.016 22.04 283.388 22.52 283.952 22.88C284.516 23.252 285.194 23.438 285.986 23.438C286.886 23.438 287.618 23.156 288.182 22.592C288.758 22.028 289.046 21.236 289.046 20.216V18.146C288.722 18.722 288.242 19.202 287.606 19.586C286.97 19.97 286.226 20.162 285.374 20.162C284.498 20.162 283.7 19.946 282.98 19.514C282.272 19.082 281.714 18.476 281.306 17.696C280.898 16.916 280.694 16.028 280.694 15.032C280.694 14.024 280.898 13.142 281.306 12.386C281.714 11.618 282.272 11.024 282.98 10.604C283.7 10.184 284.498 9.974 285.374 9.974ZM289.046 15.05C289.046 14.306 288.896 13.658 288.596 13.106C288.296 12.554 287.888 12.134 287.372 11.846C286.868 11.546 286.31 11.396 285.698 11.396C285.086 11.396 284.528 11.54 284.024 11.828C283.52 12.116 283.118 12.536 282.818 13.088C282.518 13.64 282.368 14.288 282.368 15.032C282.368 15.788 282.518 16.448 282.818 17.012C283.118 17.564 283.52 17.99 284.024 18.29C284.528 18.578 285.086 18.722 285.698 18.722C286.31 18.722 286.868 18.578 287.372 18.29C287.888 17.99 288.296 17.564 288.596 17.012C288.896 16.448 289.046 15.794 289.046 15.05ZM295.522 17.732L293.506 22.574H292.408L293.722 17.732H295.522ZM310.333 17.21H304.861L303.853 20H302.125L306.661 7.526H308.551L313.069 20H311.341L310.333 17.21ZM309.865 15.878L307.597 9.542L305.329 15.878H309.865ZM317.044 6.68V20H315.406V6.68H317.044ZM319.584 15.032C319.584 14.024 319.788 13.142 320.196 12.386C320.604 11.618 321.162 11.024 321.87 10.604C322.59 10.184 323.388 9.974 324.264 9.974C325.128 9.974 325.878 10.16 326.514 10.532C327.15 10.904 327.624 11.372 327.936 11.936V10.136H329.592V20H327.936V18.164C327.612 18.74 327.126 19.22 326.478 19.604C325.842 19.976 325.098 20.162 324.246 20.162C323.37 20.162 322.578 19.946 321.87 19.514C321.162 19.082 320.604 18.476 320.196 17.696C319.788 16.916 319.584 16.028 319.584 15.032ZM327.936 15.05C327.936 14.306 327.786 13.658 327.486 13.106C327.186 12.554 326.778 12.134 326.262 11.846C325.758 11.546 325.2 11.396 324.588 11.396C323.976 11.396 323.418 11.54 322.914 11.828C322.41 12.116 322.008 12.536 321.708 13.088C321.408 13.64 321.258 14.288 321.258 15.032C321.258 15.788 321.408 16.448 321.708 17.012C322.008 17.564 322.41 17.99 322.914 18.29C323.418 18.578 323.976 18.722 324.588 18.722C325.2 18.722 325.758 18.578 326.262 18.29C326.778 17.99 327.186 17.564 327.486 17.012C327.786 16.448 327.936 15.794 327.936 15.05ZM336.212 20.162C335.456 20.162 334.778 20.036 334.178 19.784C333.578 19.52 333.104 19.16 332.756 18.704C332.408 18.236 332.216 17.702 332.18 17.102H333.872C333.92 17.594 334.148 17.996 334.556 18.308C334.976 18.62 335.522 18.776 336.194 18.776C336.818 18.776 337.31 18.638 337.67 18.362C338.03 18.086 338.21 17.738 338.21 17.318C338.21 16.886 338.018 16.568 337.634 16.364C337.25 16.148 336.656 15.938 335.852 15.734C335.12 15.542 334.52 15.35 334.052 15.158C333.596 14.954 333.2 14.66 332.864 14.276C332.54 13.88 332.378 13.364 332.378 12.728C332.378 12.224 332.528 11.762 332.828 11.342C333.128 10.922 333.554 10.592 334.106 10.352C334.658 10.1 335.288 9.974 335.996 9.974C337.088 9.974 337.97 10.25 338.642 10.802C339.314 11.354 339.674 12.11 339.722 13.07H338.084C338.048 12.554 337.838 12.14 337.454 11.828C337.082 11.516 336.578 11.36 335.942 11.36C335.354 11.36 334.886 11.486 334.538 11.738C334.19 11.99 334.016 12.32 334.016 12.728C334.016 13.052 334.118 13.322 334.322 13.538C334.538 13.742 334.802 13.91 335.114 14.042C335.438 14.162 335.882 14.3 336.446 14.456C337.154 14.648 337.73 14.84 338.174 15.032C338.618 15.212 338.996 15.488 339.308 15.86C339.632 16.232 339.8 16.718 339.812 17.318C339.812 17.858 339.662 18.344 339.362 18.776C339.062 19.208 338.636 19.55 338.084 19.802C337.544 20.042 336.92 20.162 336.212 20.162ZM347.992 20L344.122 15.644V20H342.484V6.68H344.122V14.51L347.92 10.136H350.206L345.562 15.05L350.224 20H347.992ZM351.496 15.032C351.496 14.024 351.7 13.142 352.108 12.386C352.516 11.618 353.074 11.024 353.782 10.604C354.502 10.184 355.3 9.974 356.176 9.974C357.04 9.974 357.79 10.16 358.426 10.532C359.062 10.904 359.536 11.372 359.848 11.936V10.136H361.504V20H359.848V18.164C359.524 18.74 359.038 19.22 358.39 19.604C357.754 19.976 357.01 20.162 356.158 20.162C355.282 20.162 354.49 19.946 353.782 19.514C353.074 19.082 352.516 18.476 352.108 17.696C351.7 16.916 351.496 16.028 351.496 15.032ZM359.848 15.05C359.848 14.306 359.698 13.658 359.398 13.106C359.098 12.554 358.69 12.134 358.174 11.846C357.67 11.546 357.112 11.396 356.5 11.396C355.888 11.396 355.33 11.54 354.826 11.828C354.322 12.116 353.92 12.536 353.62 13.088C353.32 13.64 353.17 14.288 353.17 15.032C353.17 15.788 353.32 16.448 353.62 17.012C353.92 17.564 354.322 17.99 354.826 18.29C355.33 18.578 355.888 18.722 356.5 18.722C357.112 18.722 357.67 18.578 358.174 18.29C358.69 17.99 359.098 17.564 359.398 17.012C359.698 16.448 359.848 15.794 359.848 15.05ZM45.222 43.508C45.342 44.192 45.618 44.72 46.05 45.092C46.494 45.464 47.088 45.65 47.832 45.65C48.828 45.65 49.56 45.26 50.028 44.48C50.508 43.7 50.736 42.386 50.712 40.538C50.46 41.078 50.04 41.504 49.452 41.816C48.864 42.116 48.21 42.266 47.49 42.266C46.686 42.266 45.966 42.104 45.33 41.78C44.706 41.444 44.214 40.958 43.854 40.322C43.494 39.686 43.314 38.918 43.314 38.018C43.314 36.734 43.686 35.702 44.43 34.922C45.174 34.13 46.23 33.734 47.598 33.734C49.278 33.734 50.454 34.28 51.126 35.372C51.81 36.464 52.152 38.09 52.152 40.25C52.152 41.762 52.014 43.01 51.738 43.994C51.474 44.978 51.018 45.728 50.37 46.244C49.734 46.76 48.858 47.018 47.742 47.018C46.518 47.018 45.564 46.688 44.88 46.028C44.196 45.368 43.806 44.528 43.71 43.508H45.222ZM47.76 40.88C48.564 40.88 49.224 40.634 49.74 40.142C50.256 39.638 50.514 38.96 50.514 38.108C50.514 37.208 50.262 36.482 49.758 35.93C49.254 35.378 48.546 35.102 47.634 35.102C46.794 35.102 46.122 35.366 45.618 35.894C45.126 36.422 44.88 37.118 44.88 37.982C44.88 38.858 45.126 39.56 45.618 40.088C46.11 40.616 46.824 40.88 47.76 40.88ZM56.9199 43.508C57.0399 44.192 57.3159 44.72 57.7479 45.092C58.1919 45.464 58.7859 45.65 59.5299 45.65C60.5259 45.65 61.2579 45.26 61.7259 44.48C62.2059 43.7 62.4339 42.386 62.4099 40.538C62.1579 41.078 61.7379 41.504 61.1499 41.816C60.5619 42.116 59.9079 42.266 59.1879 42.266C58.3839 42.266 57.6639 42.104 57.0279 41.78C56.4039 41.444 55.9119 40.958 55.5519 40.322C55.1919 39.686 55.0119 38.918 55.0119 38.018C55.0119 36.734 55.3839 35.702 56.1279 34.922C56.8719 34.13 57.9279 33.734 59.2959 33.734C60.9759 33.734 62.1519 34.28 62.8239 35.372C63.5079 36.464 63.8499 38.09 63.8499 40.25C63.8499 41.762 63.7119 43.01 63.4359 43.994C63.1719 44.978 62.7159 45.728 62.0679 46.244C61.4319 46.76 60.5559 47.018 59.4399 47.018C58.2159 47.018 57.2619 46.688 56.5779 46.028C55.8939 45.368 55.5039 44.528 55.4079 43.508H56.9199ZM59.4579 40.88C60.2619 40.88 60.9219 40.634 61.4379 40.142C61.9539 39.638 62.2119 38.96 62.2119 38.108C62.2119 37.208 61.9599 36.482 61.4559 35.93C60.9519 35.378 60.2439 35.102 59.3319 35.102C58.4919 35.102 57.8199 35.366 57.3159 35.894C56.8239 36.422 56.5779 37.118 56.5779 37.982C56.5779 38.858 56.8239 39.56 57.3159 40.088C57.8079 40.616 58.5219 40.88 59.4579 40.88ZM68.6178 43.508C68.7378 44.192 69.0138 44.72 69.4458 45.092C69.8898 45.464 70.4838 45.65 71.2278 45.65C72.2238 45.65 72.9558 45.26 73.4238 44.48C73.9038 43.7 74.1318 42.386 74.1078 40.538C73.8558 41.078 73.4358 41.504 72.8478 41.816C72.2598 42.116 71.6058 42.266 70.8858 42.266C70.0818 42.266 69.3618 42.104 68.7258 41.78C68.1018 41.444 67.6098 40.958 67.2498 40.322C66.8898 39.686 66.7098 38.918 66.7098 38.018C66.7098 36.734 67.0818 35.702 67.8258 34.922C68.5698 34.13 69.6258 33.734 70.9938 33.734C72.6738 33.734 73.8498 34.28 74.5218 35.372C75.2058 36.464 75.5478 38.09 75.5478 40.25C75.5478 41.762 75.4098 43.01 75.1338 43.994C74.8698 44.978 74.4138 45.728 73.7658 46.244C73.1298 46.76 72.2538 47.018 71.1378 47.018C69.9138 47.018 68.9598 46.688 68.2758 46.028C67.5918 45.368 67.2018 44.528 67.1058 43.508H68.6178ZM71.1558 40.88C71.9598 40.88 72.6198 40.634 73.1358 40.142C73.6518 39.638 73.9098 38.96 73.9098 38.108C73.9098 37.208 73.6578 36.482 73.1538 35.93C72.6498 35.378 71.9418 35.102 71.0298 35.102C70.1898 35.102 69.5178 35.366 69.0138 35.894C68.5218 36.422 68.2758 37.118 68.2758 37.982C68.2758 38.858 68.5218 39.56 69.0138 40.088C69.5058 40.616 70.2198 40.88 71.1558 40.88ZM78.0117 45.686C79.5357 44.462 80.7297 43.46 81.5937 42.68C82.4577 41.888 83.1837 41.066 83.7717 40.214C84.3717 39.35 84.6717 38.504 84.6717 37.676C84.6717 36.896 84.4797 36.284 84.0957 35.84C83.7237 35.384 83.1177 35.156 82.2777 35.156C81.4617 35.156 80.8257 35.414 80.3697 35.93C79.9257 36.434 79.6857 37.112 79.6497 37.964H78.0657C78.1137 36.62 78.5217 35.582 79.2897 34.85C80.0577 34.118 81.0477 33.752 82.2597 33.752C83.4957 33.752 84.4737 34.094 85.1937 34.778C85.9257 35.462 86.2917 36.404 86.2917 37.604C86.2917 38.6 85.9917 39.572 85.3917 40.52C84.8037 41.456 84.1317 42.284 83.3757 43.004C82.6197 43.712 81.6537 44.54 80.4777 45.488H86.6697V46.856H78.0117V45.686ZM88.4912 35.48V33.986H91.8752V47H90.2192V35.48H88.4912ZM97.0108 44.732L94.9948 49.574H93.8968L95.2108 44.732H97.0108ZM106.008 34.454V42.392C106.008 43.508 106.278 44.336 106.818 44.876C107.37 45.416 108.132 45.686 109.104 45.686C110.064 45.686 110.814 45.416 111.354 44.876C111.906 44.336 112.182 43.508 112.182 42.392V34.454H113.82V42.374C113.82 43.418 113.61 44.3 113.19 45.02C112.77 45.728 112.2 46.256 111.48 46.604C110.772 46.952 109.974 47.126 109.086 47.126C108.198 47.126 107.394 46.952 106.674 46.604C105.966 46.256 105.402 45.728 104.982 45.02C104.574 44.3 104.37 43.418 104.37 42.374V34.454H106.008ZM120.89 47.126C120.062 47.126 119.318 46.982 118.658 46.694C118.01 46.394 117.5 45.986 117.128 45.47C116.756 44.942 116.564 44.336 116.552 43.652H118.298C118.358 44.24 118.598 44.738 119.018 45.146C119.45 45.542 120.074 45.74 120.89 45.74C121.67 45.74 122.282 45.548 122.726 45.164C123.182 44.768 123.41 44.264 123.41 43.652C123.41 43.172 123.278 42.782 123.014 42.482C122.75 42.182 122.42 41.954 122.024 41.798C121.628 41.642 121.094 41.474 120.422 41.294C119.594 41.078 118.928 40.862 118.424 40.646C117.932 40.43 117.506 40.094 117.146 39.638C116.798 39.17 116.624 38.546 116.624 37.766C116.624 37.082 116.798 36.476 117.146 35.948C117.494 35.42 117.98 35.012 118.604 34.724C119.24 34.436 119.966 34.292 120.782 34.292C121.958 34.292 122.918 34.586 123.662 35.174C124.418 35.762 124.844 36.542 124.94 37.514H123.14C123.08 37.034 122.828 36.614 122.384 36.254C121.94 35.882 121.352 35.696 120.62 35.696C119.936 35.696 119.378 35.876 118.946 36.236C118.514 36.584 118.298 37.076 118.298 37.712C118.298 38.168 118.424 38.54 118.676 38.828C118.94 39.116 119.258 39.338 119.63 39.494C120.014 39.638 120.548 39.806 121.232 39.998C122.06 40.226 122.726 40.454 123.23 40.682C123.734 40.898 124.166 41.24 124.526 41.708C124.886 42.164 125.066 42.788 125.066 43.58C125.066 44.192 124.904 44.768 124.58 45.308C124.256 45.848 123.776 46.286 123.14 46.622C122.504 46.958 121.754 47.126 120.89 47.126ZM135.253 44.21H129.781L128.773 47H127.045L131.581 34.526H133.471L137.989 47H136.261L135.253 44.21ZM134.785 42.878L132.517 36.542L130.249 42.878H134.785Z" fill="#F3F4F6"/>
<path d="M432.833 23.9166H421.166C417.666 23.9166 415.333 22.1666 415.333 18.0833V9.91665C415.333 5.83331 417.666 4.08331 421.166 4.08331H432.833C436.333 4.08331 438.666 5.83331 438.666 9.91665V18.0833C438.666 22.1666 436.333 23.9166 432.833 23.9166Z" stroke="url(#paint2_linear_76_1520)" stroke-width="2" stroke-miterlimit="10" stroke-linecap="round" stroke-linejoin="round"/>
<path d="M432.834 10.5L429.182 13.4167C427.98 14.3733 426.009 14.3733 424.807 13.4167L421.167 10.5" stroke="url(#paint3_linear_76_1520)" stroke-width="2" stroke-miterlimit="10" stroke-linecap="round" stroke-linejoin="round"/>
<path d="M464.882 10.636L458.942 25.144H457.25L459.194 20.392L455.216 10.636H457.034L460.13 18.628L463.19 10.636H464.882ZM471.191 20.662C470.267 20.662 469.427 20.452 468.671 20.032C467.927 19.612 467.339 19.018 466.907 18.25C466.487 17.47 466.277 16.57 466.277 15.55C466.277 14.542 466.493 13.654 466.925 12.886C467.369 12.106 467.969 11.512 468.725 11.104C469.481 10.684 470.327 10.474 471.263 10.474C472.199 10.474 473.045 10.684 473.801 11.104C474.557 11.512 475.151 12.1 475.583 12.868C476.027 13.636 476.249 14.53 476.249 15.55C476.249 16.57 476.021 17.47 475.565 18.25C475.121 19.018 474.515 19.612 473.747 20.032C472.979 20.452 472.127 20.662 471.191 20.662ZM471.191 19.222C471.779 19.222 472.331 19.084 472.847 18.808C473.363 18.532 473.777 18.118 474.089 17.566C474.413 17.014 474.575 16.342 474.575 15.55C474.575 14.758 474.419 14.086 474.107 13.534C473.795 12.982 473.387 12.574 472.883 12.31C472.379 12.034 471.833 11.896 471.245 11.896C470.645 11.896 470.093 12.034 469.589 12.31C469.097 12.574 468.701 12.982 468.401 13.534C468.101 14.086 467.951 14.758 467.951 15.55C467.951 16.354 468.095 17.032 468.383 17.584C468.683 18.136 469.079 18.55 469.571 18.826C470.063 19.09 470.603 19.222 471.191 19.222ZM487.51 10.636V20.5H485.872V19.042C485.56 19.546 485.122 19.942 484.558 20.23C484.006 20.506 483.394 20.644 482.722 20.644C481.954 20.644 481.264 20.488 480.652 20.176C480.04 19.852 479.554 19.372 479.194 18.736C478.846 18.1 478.672 17.326 478.672 16.414V10.636H480.292V16.198C480.292 17.17 480.538 17.92 481.03 18.448C481.522 18.964 482.194 19.222 483.046 19.222C483.922 19.222 484.612 18.952 485.116 18.412C485.62 17.872 485.872 17.086 485.872 16.054V10.636H487.51ZM492.274 12.238C492.562 11.674 492.97 11.236 493.498 10.924C494.038 10.612 494.692 10.456 495.46 10.456V12.148H495.028C493.192 12.148 492.274 13.144 492.274 15.136V20.5H490.636V10.636H492.274V12.238ZM506.711 8.962C508.043 8.962 509.201 9.214 510.185 9.718C511.169 10.222 511.925 10.93 512.453 11.842C512.981 12.742 513.245 13.786 513.245 14.974C513.245 15.922 513.089 16.834 512.777 17.71C512.465 18.574 512.009 19.276 511.409 19.816C510.821 20.356 510.131 20.626 509.339 20.626C508.739 20.626 508.277 20.476 507.953 20.176C507.629 19.876 507.443 19.468 507.395 18.952C507.023 19.468 506.549 19.876 505.973 20.176C505.409 20.476 504.809 20.626 504.173 20.626C503.261 20.626 502.541 20.35 502.013 19.798C501.497 19.234 501.239 18.478 501.239 17.53C501.239 16.63 501.425 15.79 501.797 15.01C502.181 14.23 502.709 13.606 503.381 13.138C504.053 12.658 504.815 12.418 505.667 12.418C506.807 12.418 507.575 12.85 507.971 13.714L508.169 12.598H509.591L508.691 17.8C508.655 18.028 508.637 18.238 508.637 18.43C508.637 19.15 508.955 19.51 509.591 19.51C510.071 19.51 510.485 19.282 510.833 18.826C511.193 18.37 511.463 17.8 511.643 17.116C511.823 16.42 511.913 15.736 511.913 15.064C511.913 13.492 511.439 12.274 510.491 11.41C509.555 10.546 508.229 10.114 506.513 10.114C505.085 10.114 503.795 10.462 502.643 11.158C501.503 11.842 500.609 12.784 499.961 13.984C499.313 15.184 498.989 16.51 498.989 17.962C498.977 19.546 499.451 20.764 500.411 21.616C501.371 22.48 502.703 22.912 504.407 22.912C505.535 22.912 506.531 22.708 507.395 22.3L507.611 23.416C506.543 23.86 505.367 24.082 504.083 24.082C502.799 24.082 501.665 23.836 500.681 23.344C499.709 22.864 498.953 22.168 498.413 21.256C497.885 20.356 497.621 19.306 497.621 18.106C497.621 16.414 498.011 14.872 498.791 13.48C499.571 12.076 500.651 10.972 502.031 10.168C503.423 9.364 504.983 8.962 506.711 8.962ZM504.659 19.348C505.199 19.348 505.697 19.192 506.153 18.88C506.609 18.556 506.969 18.124 507.233 17.584C507.497 17.032 507.629 16.432 507.629 15.784C507.629 15.16 507.455 14.656 507.107 14.272C506.771 13.876 506.291 13.678 505.667 13.678C505.091 13.678 504.581 13.852 504.137 14.2C503.705 14.536 503.369 14.986 503.129 15.55C502.889 16.102 502.769 16.678 502.769 17.278C502.769 17.914 502.931 18.418 503.255 18.79C503.579 19.162 504.047 19.348 504.659 19.348ZM528.161 10.456C528.929 10.456 529.613 10.618 530.213 10.942C530.813 11.254 531.287 11.728 531.635 12.364C531.983 13 532.157 13.774 532.157 14.686V20.5H530.537V14.92C530.537 13.936 530.291 13.186 529.799 12.67C529.319 12.142 528.665 11.878 527.837 11.878C526.985 11.878 526.307 12.154 525.803 12.706C525.299 13.246 525.047 14.032 525.047 15.064V20.5H523.427V14.92C523.427 13.936 523.181 13.186 522.689 12.67C522.209 12.142 521.555 11.878 520.727 11.878C519.875 11.878 519.197 12.154 518.693 12.706C518.189 13.246 517.937 14.032 517.937 15.064V20.5H516.299V10.636H517.937V12.058C518.261 11.542 518.693 11.146 519.233 10.87C519.785 10.594 520.391 10.456 521.051 10.456C521.879 10.456 522.611 10.642 523.247 11.014C523.883 11.386 524.357 11.932 524.669 12.652C524.945 11.956 525.401 11.416 526.037 11.032C526.673 10.648 527.381 10.456 528.161 10.456ZM534.592 15.532C534.592 14.524 534.796 13.642 535.204 12.886C535.612 12.118 536.17 11.524 536.878 11.104C537.598 10.684 538.396 10.474 539.272 10.474C540.136 10.474 540.886 10.66 541.522 11.032C542.158 11.404 542.632 11.872 542.944 12.436V10.636H544.6V20.5H542.944V18.664C542.62 19.24 542.134 19.72 541.486 20.104C540.85 20.476 540.106 20.662 539.254 20.662C538.378 20.662 537.586 20.446 536.878 20.014C536.17 19.582 535.612 18.976 535.204 18.196C534.796 17.416 534.592 16.528 534.592 15.532ZM542.944 15.55C542.944 14.806 542.794 14.158 542.494 13.606C542.194 13.054 541.786 12.634 541.27 12.346C540.766 12.046 540.208 11.896 539.596 11.896C538.984 11.896 538.426 12.04 537.922 12.328C537.418 12.616 537.016 13.036 536.716 13.588C536.416 14.14 536.266 14.788 536.266 15.532C536.266 16.288 536.416 16.948 536.716 17.512C537.016 18.064 537.418 18.49 537.922 18.79C538.426 19.078 538.984 19.222 539.596 19.222C540.208 19.222 540.766 19.078 541.27 18.79C541.786 18.49 542.194 18.064 542.494 17.512C542.794 16.948 542.944 16.294 542.944 15.55ZM548.574 9.034C548.262 9.034 547.998 8.926 547.782 8.71C547.566 8.494 547.458 8.23 547.458 7.918C547.458 7.606 547.566 7.342 547.782 7.126C547.998 6.91 548.262 6.802 548.574 6.802C548.874 6.802 549.126 6.91 549.33 7.126C549.546 7.342 549.654 7.606 549.654 7.918C549.654 8.23 549.546 8.494 549.33 8.71C549.126 8.926 548.874 9.034 548.574 9.034ZM549.366 10.636V20.5H547.728V10.636H549.366ZM554.156 7.18V20.5H552.518V7.18H554.156ZM557.83 20.608C557.518 20.608 557.254 20.5 557.038 20.284C556.822 20.068 556.714 19.804 556.714 19.492C556.714 19.18 556.822 18.916 557.038 18.7C557.254 18.484 557.518 18.376 557.83 18.376C558.13 18.376 558.382 18.484 558.586 18.7C558.802 18.916 558.91 19.18 558.91 19.492C558.91 19.804 558.802 20.068 558.586 20.284C558.382 20.5 558.13 20.608 557.83 20.608ZM560.835 15.55C560.835 14.53 561.039 13.642 561.447 12.886C561.855 12.118 562.419 11.524 563.139 11.104C563.871 10.684 564.705 10.474 565.641 10.474C566.853 10.474 567.849 10.768 568.629 11.356C569.421 11.944 569.943 12.76 570.195 13.804H568.431C568.263 13.204 567.933 12.73 567.441 12.382C566.961 12.034 566.361 11.86 565.641 11.86C564.705 11.86 563.949 12.184 563.373 12.832C562.797 13.468 562.509 14.374 562.509 15.55C562.509 16.738 562.797 17.656 563.373 18.304C563.949 18.952 564.705 19.276 565.641 19.276C566.361 19.276 566.961 19.108 567.441 18.772C567.921 18.436 568.251 17.956 568.431 17.332H570.195C569.931 18.34 569.403 19.15 568.611 19.762C567.819 20.362 566.829 20.662 565.641 20.662C564.705 20.662 563.871 20.452 563.139 20.032C562.419 19.612 561.855 19.018 561.447 18.25C561.039 17.482 560.835 16.582 560.835 15.55ZM577.043 20.662C576.119 20.662 575.279 20.452 574.523 20.032C573.779 19.612 573.191 19.018 572.759 18.25C572.339 17.47 572.129 16.57 572.129 15.55C572.129 14.542 572.345 13.654 572.777 12.886C573.221 12.106 573.821 11.512 574.577 11.104C575.333 10.684 576.179 10.474 577.115 10.474C578.051 10.474 578.897 10.684 579.653 11.104C580.409 11.512 581.003 12.1 581.435 12.868C581.879 13.636 582.101 14.53 582.101 15.55C582.101 16.57 581.873 17.47 581.417 18.25C580.973 19.018 580.367 19.612 579.599 20.032C578.831 20.452 577.979 20.662 577.043 20.662ZM577.043 19.222C577.631 19.222 578.183 19.084 578.699 18.808C579.215 18.532 579.629 18.118 579.941 17.566C580.265 17.014 580.427 16.342 580.427 15.55C580.427 14.758 580.271 14.086 579.959 13.534C579.647 12.982 579.239 12.574 578.735 12.31C578.231 12.034 577.685 11.896 577.097 11.896C576.497 11.896 575.945 12.034 575.441 12.31C574.949 12.574 574.553 12.982 574.253 13.534C573.953 14.086 573.803 14.758 573.803 15.55C573.803 16.354 573.947 17.032 574.235 17.584C574.535 18.136 574.931 18.55 575.423 18.826C575.915 19.09 576.455 19.222 577.043 19.222ZM596.476 10.456C597.244 10.456 597.928 10.618 598.528 10.942C599.128 11.254 599.602 11.728 599.95 12.364C600.298 13 600.472 13.774 600.472 14.686V20.5H598.852V14.92C598.852 13.936 598.606 13.186 598.114 12.67C597.634 12.142 596.98 11.878 596.152 11.878C595.3 11.878 594.622 12.154 594.118 12.706C593.614 13.246 593.362 14.032 593.362 15.064V20.5H591.742V14.92C591.742 13.936 591.496 13.186 591.004 12.67C590.524 12.142 589.87 11.878 589.042 11.878C588.19 11.878 587.512 12.154 587.008 12.706C586.504 13.246 586.252 14.032 586.252 15.064V20.5H584.614V10.636H586.252V12.058C586.576 11.542 587.008 11.146 587.548 10.87C588.1 10.594 588.706 10.456 589.366 10.456C590.194 10.456 590.926 10.642 591.562 11.014C592.198 11.386 592.672 11.932 592.984 12.652C593.26 11.956 593.716 11.416 594.352 11.032C594.988 10.648 595.696 10.456 596.476 10.456Z" fill="#F3F4F6"/>
<path d="M622.43 12.8763C621.701 11.2427 621.415 9.94885 621.308 8.66112C621.15 6.75661 622.296 5.06507 623.957 4.10628C624.659 3.70106 625.37 3.96281 625.665 4.64711L626.331 6.192C626.859 7.41652 627.123 8.02878 626.978 8.62271C626.833 9.21665 626.314 9.64834 625.275 10.5117L622.43 12.8763ZM622.43 12.8763C623.906 16.1829 626.488 19.323 629.53 21.5063M629.53 21.5063C631.032 22.5837 632.295 23.1739 633.598 23.5999C635.525 24.23 637.566 23.6252 638.982 22.368C639.58 21.8367 639.491 21.1272 638.86 20.6851L637.434 19.6872C636.304 18.8962 635.739 18.5007 635.088 18.4802C634.437 18.4597 633.859 18.819 632.701 19.5378L629.53 21.5063Z" stroke="url(#paint4_linear_76_1520)" stroke-width="2" stroke-linejoin="round"/>
<path d="M668.746 14.614H664.912V18.502H663.382V14.614H659.566V13.228H663.382V9.322H664.912V13.228H668.746V14.614ZM671.331 8.98V7.486H674.715V20.5H673.059V8.98H671.331ZM687.53 23.848C686.378 22.72 685.478 21.286 684.83 19.546C684.194 17.806 683.876 15.928 683.876 13.912C683.876 11.848 684.212 9.922 684.884 8.134C685.568 6.334 686.54 4.852 687.8 3.688H689.51V3.85C688.166 5.11 687.152 6.628 686.468 8.404C685.796 10.168 685.46 12.004 685.46 13.912C685.46 15.772 685.778 17.548 686.414 19.24C687.062 20.932 688.004 22.414 689.24 23.686V23.848H687.53ZM691.581 13.858C691.581 11.794 691.917 10.186 692.589 9.034C693.261 7.87 694.437 7.288 696.117 7.288C697.785 7.288 698.955 7.87 699.627 9.034C700.299 10.186 700.635 11.794 700.635 13.858C700.635 15.958 700.299 17.59 699.627 18.754C698.955 19.918 697.785 20.5 696.117 20.5C694.437 20.5 693.261 19.918 692.589 18.754C691.917 17.59 691.581 15.958 691.581 13.858ZM699.015 13.858C699.015 12.814 698.943 11.932 698.799 11.212C698.667 10.48 698.385 9.892 697.953 9.448C697.533 9.004 696.921 8.782 696.117 8.782C695.301 8.782 694.677 9.004 694.245 9.448C693.825 9.892 693.543 10.48 693.399 11.212C693.267 11.932 693.201 12.814 693.201 13.858C693.201 14.938 693.267 15.844 693.399 16.576C693.543 17.308 693.825 17.896 694.245 18.34C694.677 18.784 695.301 19.006 696.117 19.006C696.921 19.006 697.533 18.784 697.953 18.34C698.385 17.896 698.667 17.308 698.799 16.576C698.943 15.844 699.015 14.938 699.015 13.858ZM703.244 13.858C703.244 11.794 703.58 10.186 704.252 9.034C704.924 7.87 706.1 7.288 707.78 7.288C709.448 7.288 710.618 7.87 711.29 9.034C711.962 10.186 712.298 11.794 712.298 13.858C712.298 15.958 711.962 17.59 711.29 18.754C710.618 19.918 709.448 20.5 707.78 20.5C706.1 20.5 704.924 19.918 704.252 18.754C703.58 17.59 703.244 15.958 703.244 13.858ZM710.678 13.858C710.678 12.814 710.606 11.932 710.462 11.212C710.33 10.48 710.048 9.892 709.616 9.448C709.196 9.004 708.584 8.782 707.78 8.782C706.964 8.782 706.34 9.004 705.908 9.448C705.488 9.892 705.206 10.48 705.062 11.212C704.93 11.932 704.864 12.814 704.864 13.858C704.864 14.938 704.93 15.844 705.062 16.576C705.206 17.308 705.488 17.896 705.908 18.34C706.34 18.784 706.964 19.006 707.78 19.006C708.584 19.006 709.196 18.784 709.616 18.34C710.048 17.896 710.33 17.308 710.462 16.576C710.606 15.844 710.678 14.938 710.678 13.858ZM714.907 13.858C714.907 11.794 715.243 10.186 715.915 9.034C716.587 7.87 717.763 7.288 719.443 7.288C721.111 7.288 722.281 7.87 722.953 9.034C723.625 10.186 723.961 11.794 723.961 13.858C723.961 15.958 723.625 17.59 722.953 18.754C722.281 19.918 721.111 20.5 719.443 20.5C717.763 20.5 716.587 19.918 715.915 18.754C715.243 17.59 714.907 15.958 714.907 13.858ZM722.341 13.858C722.341 12.814 722.269 11.932 722.125 11.212C721.993 10.48 721.711 9.892 721.279 9.448C720.859 9.004 720.247 8.782 719.443 8.782C718.627 8.782 718.003 9.004 717.571 9.448C717.151 9.892 716.869 10.48 716.725 11.212C716.593 11.932 716.527 12.814 716.527 13.858C716.527 14.938 716.593 15.844 716.725 16.576C716.869 17.308 717.151 17.896 717.571 18.34C718.003 18.784 718.627 19.006 719.443 19.006C720.247 19.006 720.859 18.784 721.279 18.34C721.711 17.896 721.993 17.308 722.125 16.576C722.269 15.844 722.341 14.938 722.341 13.858ZM726.318 23.848V23.686C727.554 22.414 728.49 20.932 729.126 19.24C729.774 17.548 730.098 15.772 730.098 13.912C730.098 12.004 729.756 10.168 729.072 8.404C728.4 6.628 727.392 5.11 726.048 3.85V3.688H727.758C729.018 4.852 729.984 6.334 730.656 8.134C731.34 9.922 731.682 11.848 731.682 13.912C731.682 15.928 731.358 17.806 730.71 19.546C730.074 21.286 729.18 22.72 728.028 23.848H726.318ZM740.262 13.858C740.262 11.794 740.598 10.186 741.27 9.034C741.942 7.87 743.118 7.288 744.798 7.288C746.466 7.288 747.636 7.87 748.308 9.034C748.98 10.186 749.316 11.794 749.316 13.858C749.316 15.958 748.98 17.59 748.308 18.754C747.636 19.918 746.466 20.5 744.798 20.5C743.118 20.5 741.942 19.918 741.27 18.754C740.598 17.59 740.262 15.958 740.262 13.858ZM747.696 13.858C747.696 12.814 747.624 11.932 747.48 11.212C747.348 10.48 747.066 9.892 746.634 9.448C746.214 9.004 745.602 8.782 744.798 8.782C743.982 8.782 743.358 9.004 742.926 9.448C742.506 9.892 742.224 10.48 742.08 11.212C741.948 11.932 741.882 12.814 741.882 13.858C741.882 14.938 741.948 15.844 742.08 16.576C742.224 17.308 742.506 17.896 742.926 18.34C743.358 18.784 743.982 19.006 744.798 19.006C745.602 19.006 746.214 18.784 746.634 18.34C747.066 17.896 747.348 17.308 747.48 16.576C747.624 15.844 747.696 14.938 747.696 13.858ZM751.925 13.858C751.925 11.794 752.261 10.186 752.933 9.034C753.605 7.87 754.781 7.288 756.461 7.288C758.129 7.288 759.299 7.87 759.971 9.034C760.643 10.186 760.979 11.794 760.979 13.858C760.979 15.958 760.643 17.59 759.971 18.754C759.299 19.918 758.129 20.5 756.461 20.5C754.781 20.5 753.605 19.918 752.933 18.754C752.261 17.59 751.925 15.958 751.925 13.858ZM759.359 13.858C759.359 12.814 759.287 11.932 759.143 11.212C759.011 10.48 758.729 9.892 758.297 9.448C757.877 9.004 757.265 8.782 756.461 8.782C755.645 8.782 755.021 9.004 754.589 9.448C754.169 9.892 753.887 10.48 753.743 11.212C753.611 11.932 753.545 12.814 753.545 13.858C753.545 14.938 753.611 15.844 753.743 16.576C753.887 17.308 754.169 17.896 754.589 18.34C755.021 18.784 755.645 19.006 756.461 19.006C757.265 19.006 757.877 18.784 758.297 18.34C758.729 17.896 759.011 17.308 759.143 16.576C759.287 15.844 759.359 14.938 759.359 13.858ZM768.747 13.858C768.747 11.794 769.083 10.186 769.755 9.034C770.427 7.87 771.603 7.288 773.283 7.288C774.951 7.288 776.121 7.87 776.793 9.034C777.465 10.186 777.801 11.794 777.801 13.858C777.801 15.958 777.465 17.59 776.793 18.754C776.121 19.918 774.951 20.5 773.283 20.5C771.603 20.5 770.427 19.918 769.755 18.754C769.083 17.59 768.747 15.958 768.747 13.858ZM776.181 13.858C776.181 12.814 776.109 11.932 775.965 11.212C775.833 10.48 775.551 9.892 775.119 9.448C774.699 9.004 774.087 8.782 773.283 8.782C772.467 8.782 771.843 9.004 771.411 9.448C770.991 9.892 770.709 10.48 770.565 11.212C770.433 11.932 770.367 12.814 770.367 13.858C770.367 14.938 770.433 15.844 770.565 16.576C770.709 17.308 770.991 17.896 771.411 18.34C771.843 18.784 772.467 19.006 773.283 19.006C774.087 19.006 774.699 18.784 775.119 18.34C775.551 17.896 775.833 17.308 775.965 16.576C776.109 15.844 776.181 14.938 776.181 13.858ZM780.409 13.858C780.409 11.794 780.745 10.186 781.417 9.034C782.089 7.87 783.265 7.288 784.945 7.288C786.613 7.288 787.783 7.87 788.455 9.034C789.127 10.186 789.463 11.794 789.463 13.858C789.463 15.958 789.127 17.59 788.455 18.754C787.783 19.918 786.613 20.5 784.945 20.5C783.265 20.5 782.089 19.918 781.417 18.754C780.745 17.59 780.409 15.958 780.409 13.858ZM787.843 13.858C787.843 12.814 787.771 11.932 787.627 11.212C787.495 10.48 787.213 9.892 786.781 9.448C786.361 9.004 785.749 8.782 784.945 8.782C784.129 8.782 783.505 9.004 783.073 9.448C782.653 9.892 782.371 10.48 782.227 11.212C782.095 11.932 782.029 12.814 782.029 13.858C782.029 14.938 782.095 15.844 782.227 16.576C782.371 17.308 782.653 17.896 783.073 18.34C783.505 18.784 784.129 19.006 784.945 19.006C785.749 19.006 786.361 18.784 786.781 18.34C787.213 17.896 787.495 17.308 787.627 16.576C787.771 15.844 787.843 14.938 787.843 13.858ZM797.231 13.858C797.231 11.794 797.567 10.186 798.239 9.034C798.911 7.87 800.087 7.288 801.767 7.288C803.435 7.288 804.605 7.87 805.277 9.034C805.949 10.186 806.285 11.794 806.285 13.858C806.285 15.958 805.949 17.59 805.277 18.754C804.605 19.918 803.435 20.5 801.767 20.5C800.087 20.5 798.911 19.918 798.239 18.754C797.567 17.59 797.231 15.958 797.231 13.858ZM804.665 13.858C804.665 12.814 804.593 11.932 804.449 11.212C804.317 10.48 804.035 9.892 803.603 9.448C803.183 9.004 802.571 8.782 801.767 8.782C800.951 8.782 800.327 9.004 799.895 9.448C799.475 9.892 799.193 10.48 799.049 11.212C798.917 11.932 798.851 12.814 798.851 13.858C798.851 14.938 798.917 15.844 799.049 16.576C799.193 17.308 799.475 17.896 799.895 18.34C800.327 18.784 800.951 19.006 801.767 19.006C802.571 19.006 803.183 18.784 803.603 18.34C804.035 17.896 804.317 17.308 804.449 16.576C804.593 15.844 804.665 14.938 804.665 13.858ZM808.894 13.858C808.894 11.794 809.23 10.186 809.902 9.034C810.574 7.87 811.75 7.288 813.43 7.288C815.098 7.288 816.268 7.87 816.94 9.034C817.612 10.186 817.948 11.794 817.948 13.858C817.948 15.958 817.612 17.59 816.94 18.754C816.268 19.918 815.098 20.5 813.43 20.5C811.75 20.5 810.574 19.918 809.902 18.754C809.23 17.59 808.894 15.958 808.894 13.858ZM816.328 13.858C816.328 12.814 816.256 11.932 816.112 11.212C815.98 10.48 815.698 9.892 815.266 9.448C814.846 9.004 814.234 8.782 813.43 8.782C812.614 8.782 811.99 9.004 811.558 9.448C811.138 9.892 810.856 10.48 810.712 11.212C810.58 11.932 810.514 12.814 810.514 13.858C810.514 14.938 810.58 15.844 810.712 16.576C810.856 17.308 811.138 17.896 811.558 18.34C811.99 18.784 812.614 19.006 813.43 19.006C814.234 19.006 814.846 18.784 815.266 18.34C815.698 17.896 815.98 17.308 816.112 16.576C816.256 15.844 816.328 14.938 816.328 13.858Z" fill="#F3F4F6"/>
<path d="M848 8.16665V14H853.833M858.504 5.33299L854.929 2.33331M841.075 2.33331L837.5 5.33299M848 23.3333C842.845 23.3333 838.667 19.1546 838.667 14C838.667 8.84532 842.845 4.66665 848 4.66665C853.155 4.66665 857.333 8.84532 857.333 14C857.333 19.1546 853.155 23.3333 848 23.3333Z" stroke="url(#paint5_linear_76_1520)" stroke-width="2" stroke-linecap="round" stroke-linejoin="round"/>
<path d="M881.31 11.734H879.024V20.5H877.764V11.734H876.396V10.672H877.764V9.988C877.764 8.92 878.034 8.134 878.574 7.63C879.126 7.126 880.014 6.874 881.238 6.874V7.954C880.422 7.954 879.846 8.11 879.51 8.422C879.186 8.734 879.024 9.256 879.024 9.988V10.672H881.31V11.734ZM884.914 12.418C885.19 11.806 885.61 11.332 886.174 10.996C886.75 10.66 887.452 10.492 888.28 10.492V11.806H887.938C887.026 11.806 886.294 12.052 885.742 12.544C885.19 13.036 884.914 13.858 884.914 15.01V20.5H883.654V10.672H884.914V12.418ZM894.837 20.644C893.913 20.644 893.079 20.44 892.335 20.032C891.603 19.612 891.021 19.024 890.589 18.268C890.169 17.5 889.959 16.606 889.959 15.586C889.959 14.566 890.175 13.678 890.607 12.922C891.039 12.154 891.627 11.566 892.371 11.158C893.115 10.738 893.949 10.528 894.873 10.528C895.797 10.528 896.631 10.738 897.375 11.158C898.131 11.566 898.719 12.154 899.139 12.922C899.571 13.678 899.787 14.566 899.787 15.586C899.787 16.594 899.571 17.482 899.139 18.25C898.707 19.018 898.113 19.612 897.357 20.032C896.601 20.44 895.761 20.644 894.837 20.644ZM894.837 19.546C895.485 19.546 896.085 19.402 896.637 19.114C897.189 18.814 897.633 18.37 897.969 17.782C898.317 17.182 898.491 16.45 898.491 15.586C898.491 14.722 898.323 13.996 897.987 13.408C897.651 12.808 897.207 12.364 896.655 12.076C896.103 11.776 895.503 11.626 894.855 11.626C894.207 11.626 893.607 11.776 893.055 12.076C892.503 12.364 892.059 12.808 891.723 13.408C891.399 13.996 891.237 14.722 891.237 15.586C891.237 16.45 891.399 17.182 891.723 17.782C892.059 18.37 892.497 18.814 893.037 19.114C893.589 19.402 894.189 19.546 894.837 19.546ZM914.144 10.492C915.296 10.492 916.232 10.858 916.952 11.59C917.684 12.31 918.05 13.36 918.05 14.74V20.5H916.808V14.884C916.808 13.816 916.55 13 916.034 12.436C915.518 11.872 914.816 11.59 913.928 11.59C913.004 11.59 912.266 11.896 911.714 12.508C911.162 13.12 910.886 14.008 910.886 15.172V20.5H909.644V14.884C909.644 13.816 909.386 13 908.87 12.436C908.354 11.872 907.646 11.59 906.746 11.59C905.822 11.59 905.084 11.896 904.532 12.508C903.98 13.12 903.704 14.008 903.704 15.172V20.5H902.444V10.672H903.704V12.364C904.016 11.752 904.46 11.29 905.036 10.978C905.612 10.654 906.254 10.492 906.962 10.492C907.814 10.492 908.558 10.696 909.194 11.104C909.842 11.512 910.31 12.112 910.598 12.904C910.862 12.124 911.312 11.53 911.948 11.122C912.596 10.702 913.328 10.492 914.144 10.492ZM925.881 13.768C925.881 11.692 926.253 10.066 926.997 8.89C927.753 7.714 929.001 7.126 930.741 7.126C932.481 7.126 933.723 7.714 934.467 8.89C935.223 10.066 935.601 11.692 935.601 13.768C935.601 15.856 935.223 17.494 934.467 18.682C933.723 19.87 932.481 20.464 930.741 20.464C929.001 20.464 927.753 19.87 926.997 18.682C926.253 17.494 925.881 15.856 925.881 13.768ZM933.117 13.768C933.117 12.88 933.057 12.136 932.937 11.536C932.829 10.924 932.601 10.426 932.253 10.042C931.917 9.658 931.413 9.466 930.741 9.466C930.069 9.466 929.559 9.658 929.211 10.042C928.875 10.426 928.647 10.924 928.527 11.536C928.419 12.136 928.365 12.88 928.365 13.768C928.365 14.68 928.419 15.448 928.527 16.072C928.635 16.684 928.863 17.182 929.211 17.566C929.559 17.938 930.069 18.124 930.741 18.124C931.413 18.124 931.923 17.938 932.271 17.566C932.619 17.182 932.847 16.684 932.955 16.072C933.063 15.448 933.117 14.68 933.117 13.768ZM940.794 16.81C940.89 17.338 941.106 17.746 941.442 18.034C941.79 18.31 942.252 18.448 942.828 18.448C943.572 18.448 944.112 18.142 944.448 17.53C944.784 16.906 944.952 15.862 944.952 14.398C944.676 14.782 944.286 15.082 943.782 15.298C943.29 15.514 942.756 15.622 942.18 15.622C941.412 15.622 940.716 15.466 940.092 15.154C939.48 14.83 938.994 14.356 938.634 13.732C938.274 13.096 938.094 12.328 938.094 11.428C938.094 10.096 938.49 9.04 939.282 8.26C940.074 7.468 941.154 7.072 942.522 7.072C944.226 7.072 945.426 7.618 946.122 8.71C946.83 9.802 947.184 11.446 947.184 13.642C947.184 15.202 947.046 16.48 946.77 17.476C946.506 18.472 946.044 19.228 945.384 19.744C944.736 20.26 943.848 20.518 942.72 20.518C941.832 20.518 941.076 20.35 940.452 20.014C939.828 19.666 939.348 19.216 939.012 18.664C938.688 18.1 938.502 17.482 938.454 16.81H940.794ZM942.702 13.57C943.326 13.57 943.818 13.378 944.178 12.994C944.538 12.61 944.718 12.094 944.718 11.446C944.718 10.738 944.526 10.192 944.142 9.808C943.77 9.412 943.26 9.214 942.612 9.214C941.964 9.214 941.448 9.418 941.064 9.826C940.692 10.222 940.506 10.75 940.506 11.41C940.506 12.046 940.686 12.568 941.046 12.976C941.418 13.372 941.97 13.57 942.702 13.57ZM950.909 20.626C950.453 20.626 950.075 20.488 949.775 20.212C949.487 19.924 949.343 19.57 949.343 19.15C949.343 18.73 949.487 18.382 949.775 18.106C950.075 17.818 950.453 17.674 950.909 17.674C951.353 17.674 951.719 17.818 952.007 18.106C952.295 18.382 952.439 18.73 952.439 19.15C952.439 19.57 952.295 19.924 952.007 20.212C951.719 20.488 951.353 20.626 950.909 20.626ZM950.909 13.174C950.453 13.174 950.075 13.036 949.775 12.76C949.487 12.472 949.343 12.118 949.343 11.698C949.343 11.278 949.487 10.93 949.775 10.654C950.075 10.366 950.453 10.222 950.909 10.222C951.353 10.222 951.719 10.366 952.007 10.654C952.295 10.93 952.439 11.278 952.439 11.698C952.439 12.118 952.295 12.472 952.007 12.76C951.719 13.036 951.353 13.174 950.909 13.174ZM954.594 13.768C954.594 11.692 954.966 10.066 955.71 8.89C956.466 7.714 957.714 7.126 959.454 7.126C961.194 7.126 962.436 7.714 963.18 8.89C963.936 10.066 964.314 11.692 964.314 13.768C964.314 15.856 963.936 17.494 963.18 18.682C962.436 19.87 961.194 20.464 959.454 20.464C957.714 20.464 956.466 19.87 955.71 18.682C954.966 17.494 954.594 15.856 954.594 13.768ZM961.83 13.768C961.83 12.88 961.77 12.136 961.65 11.536C961.542 10.924 961.314 10.426 960.966 10.042C960.63 9.658 960.126 9.466 959.454 9.466C958.782 9.466 958.272 9.658 957.924 10.042C957.588 10.426 957.36 10.924 957.24 11.536C957.132 12.136 957.078 12.88 957.078 13.768C957.078 14.68 957.132 15.448 957.24 16.072C957.348 16.684 957.576 17.182 957.924 17.566C958.272 17.938 958.782 18.124 959.454 18.124C960.126 18.124 960.636 17.938 960.984 17.566C961.332 17.182 961.56 16.684 961.668 16.072C961.776 15.448 961.83 14.68 961.83 13.768ZM966.59 13.768C966.59 11.692 966.962 10.066 967.706 8.89C968.462 7.714 969.71 7.126 971.45 7.126C973.19 7.126 974.432 7.714 975.176 8.89C975.932 10.066 976.31 11.692 976.31 13.768C976.31 15.856 975.932 17.494 975.176 18.682C974.432 19.87 973.19 20.464 971.45 20.464C969.71 20.464 968.462 19.87 967.706 18.682C966.962 17.494 966.59 15.856 966.59 13.768ZM973.826 13.768C973.826 12.88 973.766 12.136 973.646 11.536C973.538 10.924 973.31 10.426 972.962 10.042C972.626 9.658 972.122 9.466 971.45 9.466C970.778 9.466 970.268 9.658 969.92 10.042C969.584 10.426 969.356 10.924 969.236 11.536C969.128 12.136 969.074 12.88 969.074 13.768C969.074 14.68 969.128 15.448 969.236 16.072C969.344 16.684 969.572 17.182 969.92 17.566C970.268 17.938 970.778 18.124 971.45 18.124C972.122 18.124 972.632 17.938 972.98 17.566C973.328 17.182 973.556 16.684 973.664 16.072C973.772 15.448 973.826 14.68 973.826 13.768ZM985.87 11.734V17.836C985.87 18.436 985.984 18.85 986.212 19.078C986.44 19.306 986.842 19.42 987.418 19.42H988.57V20.5H987.22C986.332 20.5 985.672 20.296 985.24 19.888C984.808 19.468 984.592 18.784 984.592 17.836V11.734H983.224V10.672H984.592V8.206H985.87V10.672H988.57V11.734H985.87ZM995.31 20.644C994.386 20.644 993.552 20.44 992.808 20.032C992.076 19.612 991.494 19.024 991.062 18.268C990.642 17.5 990.432 16.606 990.432 15.586C990.432 14.566 990.648 13.678 991.08 12.922C991.512 12.154 992.1 11.566 992.844 11.158C993.588 10.738 994.422 10.528 995.346 10.528C996.27 10.528 997.104 10.738 997.848 11.158C998.604 11.566 999.192 12.154 999.612 12.922C1000.04 13.678 1000.26 14.566 1000.26 15.586C1000.26 16.594 1000.04 17.482 999.612 18.25C999.18 19.018 998.586 19.612 997.83 20.032C997.074 20.44 996.234 20.644 995.31 20.644ZM995.31 19.546C995.958 19.546 996.558 19.402 997.11 19.114C997.662 18.814 998.106 18.37 998.442 17.782C998.79 17.182 998.964 16.45 998.964 15.586C998.964 14.722 998.796 13.996 998.46 13.408C998.124 12.808 997.68 12.364 997.128 12.076C996.576 11.776 995.976 11.626 995.328 11.626C994.68 11.626 994.08 11.776 993.528 12.076C992.976 12.364 992.532 12.808 992.196 13.408C991.872 13.996 991.71 14.722 991.71 15.586C991.71 16.45 991.872 17.182 992.196 17.782C992.532 18.37 992.97 18.814 993.51 19.114C994.062 19.402 994.662 19.546 995.31 19.546ZM1007.28 9.7V7.378H1011.62V20.5H1009.03V9.7H1007.28ZM1016.67 13.552C1015.47 12.928 1014.87 11.962 1014.87 10.654C1014.87 10.006 1015.03 9.418 1015.35 8.89C1015.69 8.35 1016.19 7.924 1016.85 7.612C1017.52 7.288 1018.34 7.126 1019.3 7.126C1020.26 7.126 1021.07 7.288 1021.73 7.612C1022.4 7.924 1022.9 8.35 1023.22 8.89C1023.56 9.418 1023.72 10.006 1023.72 10.654C1023.72 11.314 1023.56 11.896 1023.24 12.4C1022.91 12.892 1022.48 13.276 1021.94 13.552C1022.6 13.84 1023.12 14.26 1023.49 14.812C1023.86 15.364 1024.05 16.018 1024.05 16.774C1024.05 17.59 1023.84 18.304 1023.42 18.916C1023.01 19.516 1022.45 19.978 1021.73 20.302C1021.01 20.626 1020.2 20.788 1019.3 20.788C1018.4 20.788 1017.59 20.626 1016.87 20.302C1016.16 19.978 1015.59 19.516 1015.17 18.916C1014.77 18.304 1014.56 17.59 1014.56 16.774C1014.56 16.018 1014.75 15.364 1015.12 14.812C1015.49 14.248 1016.01 13.828 1016.67 13.552ZM1021.28 11.014C1021.28 10.426 1021.1 9.97 1020.74 9.646C1020.39 9.322 1019.91 9.16 1019.3 9.16C1018.7 9.16 1018.22 9.322 1017.86 9.646C1017.51 9.97 1017.33 10.432 1017.33 11.032C1017.33 11.572 1017.51 12.004 1017.87 12.328C1018.25 12.652 1018.72 12.814 1019.3 12.814C1019.87 12.814 1020.35 12.652 1020.72 12.328C1021.09 11.992 1021.28 11.554 1021.28 11.014ZM1019.3 14.65C1018.61 14.65 1018.05 14.824 1017.62 15.172C1017.2 15.52 1016.99 16.018 1016.99 16.666C1016.99 17.266 1017.2 17.758 1017.6 18.142C1018.02 18.514 1018.59 18.7 1019.3 18.7C1020 18.7 1020.56 18.508 1020.97 18.124C1021.38 17.74 1021.58 17.254 1021.58 16.666C1021.58 16.03 1021.37 15.538 1020.95 15.19C1020.53 14.83 1019.98 14.65 1019.3 14.65ZM1027.8 20.626C1027.35 20.626 1026.97 20.488 1026.67 20.212C1026.38 19.924 1026.24 19.57 1026.24 19.15C1026.24 18.73 1026.38 18.382 1026.67 18.106C1026.97 17.818 1027.35 17.674 1027.8 17.674C1028.25 17.674 1028.61 17.818 1028.9 18.106C1029.19 18.382 1029.33 18.73 1029.33 19.15C1029.33 19.57 1029.19 19.924 1028.9 20.212C1028.61 20.488 1028.25 20.626 1027.8 20.626ZM1027.8 13.174C1027.35 13.174 1026.97 13.036 1026.67 12.76C1026.38 12.472 1026.24 12.118 1026.24 11.698C1026.24 11.278 1026.38 10.93 1026.67 10.654C1026.97 10.366 1027.35 10.222 1027.8 10.222C1028.25 10.222 1028.61 10.366 1028.9 10.654C1029.19 10.93 1029.33 11.278 1029.33 11.698C1029.33 12.118 1029.19 12.472 1028.9 12.76C1028.61 13.036 1028.25 13.174 1027.8 13.174ZM1031.49 13.768C1031.49 11.692 1031.86 10.066 1032.6 8.89C1033.36 7.714 1034.61 7.126 1036.35 7.126C1038.09 7.126 1039.33 7.714 1040.07 8.89C1040.83 10.066 1041.21 11.692 1041.21 13.768C1041.21 15.856 1040.83 17.494 1040.07 18.682C1039.33 19.87 1038.09 20.464 1036.35 20.464C1034.61 20.464 1033.36 19.87 1032.6 18.682C1031.86 17.494 1031.49 15.856 1031.49 13.768ZM1038.72 13.768C1038.72 12.88 1038.66 12.136 1038.54 11.536C1038.43 10.924 1038.21 10.426 1037.86 10.042C1037.52 9.658 1037.02 9.466 1036.35 9.466C1035.67 9.466 1035.16 9.658 1034.82 10.042C1034.48 10.426 1034.25 10.924 1034.13 11.536C1034.02 12.136 1033.97 12.88 1033.97 13.768C1033.97 14.68 1034.02 15.448 1034.13 16.072C1034.24 16.684 1034.47 17.182 1034.82 17.566C1035.16 17.938 1035.67 18.124 1036.35 18.124C1037.02 18.124 1037.53 17.938 1037.88 17.566C1038.22 17.182 1038.45 16.684 1038.56 16.072C1038.67 15.448 1038.72 14.68 1038.72 13.768ZM1043.48 13.768C1043.48 11.692 1043.85 10.066 1044.6 8.89C1045.35 7.714 1046.6 7.126 1048.34 7.126C1050.08 7.126 1051.32 7.714 1052.07 8.89C1052.82 10.066 1053.2 11.692 1053.2 13.768C1053.2 15.856 1052.82 17.494 1052.07 18.682C1051.32 19.87 1050.08 20.464 1048.34 20.464C1046.6 20.464 1045.35 19.87 1044.6 18.682C1043.85 17.494 1043.48 15.856 1043.48 13.768ZM1050.72 13.768C1050.72 12.88 1050.66 12.136 1050.54 11.536C1050.43 10.924 1050.2 10.426 1049.85 10.042C1049.52 9.658 1049.01 9.466 1048.34 9.466C1047.67 9.466 1047.16 9.658 1046.81 10.042C1046.48 10.426 1046.25 10.924 1046.13 11.536C1046.02 12.136 1045.97 12.88 1045.97 13.768C1045.97 14.68 1046.02 15.448 1046.13 16.072C1046.24 16.684 1046.46 17.182 1046.81 17.566C1047.16 17.938 1047.67 18.124 1048.34 18.124C1049.01 18.124 1049.52 17.938 1049.87 17.566C1050.22 17.182 1050.45 16.684 1050.56 16.072C1050.66 15.448 1050.72 14.68 1050.72 13.768Z" fill="#F3F4F6"/>
<defs>
<linearGradient id="paint0_linear_76_1520" x1="7.80426" y1="-2.80098" x2="33.2537" y2="4.79376" gradientUnits="userSpaceOnUse">
<stop stop-color="white"/>
<stop offset="1" stop-color="#D9D9D9"/>
</linearGradient>
<linearGradient id="paint1_linear_76_1520" x1="7.80426" y1="-2.80098" x2="33.2537" y2="4.79376" gradientUnits="userSpaceOnUse">
<stop stop-color="white"/>
<stop offset="1" stop-color="#D9D9D9"/>
</linearGradient>
<linearGradient id="paint2_linear_76_1520" x1="418.149" y1="-1.95271" x2="451.198" y2="12.7552" gradientUnits="userSpaceOnUse">
<stop stop-color="white"/>
<stop offset="1" stop-color="#D9D9D9"/>
</linearGradient>
<linearGradient id="paint3_linear_76_1520" x1="422.575" y1="9.39399" x2="430.575" y2="19.1088" gradientUnits="userSpaceOnUse">
<stop stop-color="white"/>
<stop offset="1" stop-color="#D9D9D9"/>
</linearGradient>
<linearGradient id="paint4_linear_76_1520" x1="624.956" y1="-1.719" x2="651.962" y2="13.4741" gradientUnits="userSpaceOnUse">
<stop stop-color="white"/>
<stop offset="1" stop-color="#D9D9D9"/>
</linearGradient>
<linearGradient id="paint5_linear_76_1520" x1="840.035" y1="-4.05777" x2="871.214" y2="7.73895" gradientUnits="userSpaceOnUse">
<stop stop-color="white"/>
<stop offset="1" stop-color="#D9D9D9"/>
</linearGradient>
</defs>
</svg>
