<svg width="27" height="17" viewBox="0 0 27 17" fill="none" xmlns="http://www.w3.org/2000/svg">
<path d="M0.79107 8.37235C0.721897 11.7274 3.03278 14.9292 6.21164 15.9734C9.20591 16.9794 12.8874 16.2269 14.8799 13.6626C16.3346 11.8658 16.6652 9.47043 16.5077 7.23255C13.9434 7.2096 11.3791 7.21725 8.81868 7.22108C8.81451 8.13459 8.81868 9.04462 8.82251 9.95813C10.3579 10.0005 11.8936 9.98107 13.429 10.012C13.0414 11.3402 12.1585 12.5763 10.8185 13.056C8.23123 14.1961 4.93001 12.7066 4.11592 9.99254C3.13324 7.39349 4.74196 4.25704 7.39802 3.501C9.04497 2.92154 10.7416 3.57399 12.1508 4.43015C12.8648 3.76205 13.5329 3.04807 14.1892 2.32644C12.5881 0.986762 10.5306 0.165369 8.41546 0.345776C4.26539 0.395136 0.633605 4.22645 0.79107 8.37235Z" fill="white"/>
<path d="M21.4996 4.91724C21.492 5.68127 21.484 6.44914 21.4802 7.21283C20.7123 7.22047 19.9486 7.2243 19.1846 7.22812C19.1846 7.99216 19.1846 8.75203 19.1846 9.51606C19.9486 9.51989 20.7165 9.52371 21.4802 9.53171C21.4878 10.2957 21.4878 11.0594 21.4955 11.8273C22.2557 11.8273 23.0197 11.8235 23.7834 11.8273C23.7876 11.0594 23.791 10.2957 23.799 9.52788C24.5627 9.52406 25.3306 9.52023 26.0946 9.51641C26.0946 8.75237 26.0946 7.99251 26.0946 7.22847C25.3309 7.22465 24.5631 7.22082 23.799 7.21317C23.7949 6.44914 23.7876 5.68127 23.7834 4.91758C23.0197 4.91724 22.2595 4.91724 21.4996 4.91724Z" fill="white"/>
<path d="M0.791071 8.37245C0.633605 4.22655 4.26505 0.39524 8.41511 0.345532C10.5303 0.165125 12.5881 0.986518 14.1888 2.32619C13.5322 3.04817 12.8641 3.7618 12.1505 4.4299C10.7413 3.57375 9.04463 2.92129 7.39767 3.50075C4.74126 4.25714 3.13254 7.39359 4.11557 9.99229C4.92967 12.7064 8.23088 14.1959 10.8181 13.0557C12.1578 12.576 13.0411 11.34 13.4286 10.0118C11.8933 9.98117 10.3575 10.0003 8.82216 9.95788C8.81833 9.04437 8.81451 8.13434 8.81834 7.22083C11.3788 7.21701 13.9431 7.20936 16.5074 7.2323C16.6648 9.47054 16.3346 11.8659 14.8795 13.6623C12.8871 16.2266 9.20592 16.9792 6.21129 15.9732C3.03313 14.9293 0.721897 11.7275 0.791071 8.37245Z" fill="#263038"/>
<path d="M21.4996 4.91724C22.2598 4.91724 23.0197 4.91724 23.7834 4.91724C23.7876 5.68127 23.7949 6.44914 23.799 7.21283C24.5627 7.22047 25.3306 7.2243 26.0946 7.22812C26.0946 7.99216 26.0946 8.75203 26.0946 9.51606C25.3309 9.51989 24.5631 9.52371 23.799 9.52753C23.7914 10.2954 23.7876 11.0591 23.7834 11.8269C23.0197 11.8231 22.2553 11.8269 21.4955 11.8269C21.4882 11.0591 21.4882 10.2954 21.4802 9.53136C20.7165 9.52336 19.9486 9.51989 19.1846 9.51572C19.1846 8.75168 19.1846 7.99181 19.1846 7.22777C19.9486 7.22395 20.7126 7.22013 21.4802 7.21248C21.484 6.44914 21.4916 5.68127 21.4996 4.91724Z" fill="#263038"/>
</svg>
