<svg width="19" height="25" viewBox="0 0 19 25" fill="none" xmlns="http://www.w3.org/2000/svg">
<path d="M11.0736 18.1123C9.59943 17.9983 8.98001 17.2673 7.82389 16.5655C7.18848 19.8993 6.41194 23.0951 4.11187 24.7647C3.40103 19.7259 5.15398 15.9412 5.96806 11.924C4.58044 9.58811 6.1349 4.88648 9.06169 6.04503C12.6639 7.46949 5.94303 14.7305 10.4549 15.6374C15.1652 16.5843 17.0881 7.46428 14.1669 4.49786C9.94634 0.215086 1.88167 4.40053 2.87338 10.5315C3.11496 12.0303 4.66386 12.4854 3.4921 14.5536C0.790906 13.9554 -0.014831 11.8249 0.0887537 8.98468C0.255949 4.33553 4.26621 1.08026 8.28863 0.629772C13.3758 0.0604032 18.1504 2.49777 18.8094 7.28283C19.5509 12.6835 16.5128 18.5322 11.0736 18.1123Z" fill="#263038"/>
</svg>
