<svg width="24" height="20" viewBox="0 0 24 20" fill="none" xmlns="http://www.w3.org/2000/svg">
<path d="M23.6906 3.13693C22.8388 3.50495 21.9222 3.75235 20.9607 3.86454C21.9431 3.2929 22.6962 2.38978 23.0509 1.31129C22.1319 1.84143 21.1154 2.22539 20.032 2.43128C19.1654 1.53553 17.9309 0.976074 16.5635 0.976074C13.9407 0.976074 11.8128 3.03947 11.8128 5.58656C11.8128 5.94855 11.8543 6.30077 11.9358 6.6384C7.9871 6.44589 4.48443 4.60914 2.14204 1.81948C1.73252 2.50076 1.4985 3.29169 1.4985 4.13751C1.4985 5.73649 2.33696 7.1502 3.61184 7.9754C2.83189 7.95104 2.10053 7.745 1.45834 7.39774V7.45624C1.45834 9.6914 3.09629 11.5549 5.27053 11.979C4.87199 12.0839 4.4527 12.1412 4.01881 12.1412C3.71291 12.1412 3.41558 12.1132 3.12547 12.0583C3.72991 13.8913 5.485 15.2245 7.5654 15.2612C5.93843 16.4994 3.88963 17.2356 1.66303 17.2356C1.27908 17.2356 0.901293 17.2136 0.52832 17.1711C2.63309 18.4799 5.12916 19.2441 7.814 19.2441C16.5549 19.2441 21.3349 12.2144 21.3349 6.12058L21.3215 5.52337C22.2476 4.87488 23.0533 4.06321 23.6906 3.13693Z" fill="#263038"/>
</svg>
